/* XPM */
static char * close_pressed_xpm[] = {
"13 13 2 1",
" 	c #262626",
".	c #BFBFBF",
"             ",
"             ",
"             ",
"             ",
"   ..   ..   ",
"   ... ...   ",
"    .....    ",
"     ...     ",
"    .....    ",
"   ... ...   ",
"   ..   ..   ",
"             ",
"             "};
