/* XPM */
static char * maximize_active_xpm[] = {
"13 13 2 1",
" 	c #262626",
".	c #ABABAB",
"             ",
"             ",
"             ",
"   .......   ",
"   .......   ",
"   .     .   ",
"   .     .   ",
"   .     .   ",
"   .     .   ",
"   .......   ",
"             ",
"             ",
"             "};
